<svg xmlns="http://www.w3.org/2000/svg" viewBox="0 0 512 512" width="512" height="512" role="img" aria-label="Grimoire logo: an open book with magical smoke rising from it, containing an arcane circle and four-pointed star">
  <!-- Grimoire logo — vectorized from the original raster mark -->
  <g transform="translate(0,512) scale(0.1,-0.1)">
    <g id="ink" fill="#0C0D0B">
      <path d="M1020 3681 c-221 -9 -230 -19 -230 -247 0 -123 3 -154 15 -164 23 -19 23 -1381 0 -1400 -12 -10 -15 -43 -15 -174 0 -244 12 -256 258 -256 115 0 153 3 168 15 16 12 101 14 565 15 l546 0 23 -25 c75 -80 318 -81 424 0 l33 25 539 0 c458 -1 542 -3 558 -15 27 -21 302 -21 349 -1 68 29 72 39 75 230 3 147 1 174 -12 185 -24 20 -24 1382 -1 1401 12 10 15 41 15 164 0 170 -9 199 -72 232 -35 19 -55 19 -1693 14 -148 0 -524 1 -835 3 -311 2 -630 1 -710 -2z"/>
    </g>
    <g id="gold" fill="#C4A052">
      <path d="M1137 3602 l-47 -48 0 -902 c0 -496 4 -902 8 -902 5 0 16 8 25 18 16 17 17 95 17 910 0 615 3 893 11 897 5 4 58 11 117 16 118 10 425 49 431 55 2 2 -112 4 -255 4 l-260 0 -47 -48z M3431 3645 c6 -6 285 -42 423 -55 61 -5 115 -15 120 -20 8 -8 11 -291 12 -902 2 -858 2 -892 20 -905 23 -17 30 300 28 1240 l-1 549 -49 49 -48 49 -255 0 c-140 0 -252 -2 -250 -5z M859 3611 l-29 -29 0 -138 0 -138 50 49 c48 47 50 51 50 105 0 66 11 80 62 80 21 0 38 4 38 10 0 5 16 28 36 50 l36 40 -107 0 c-104 0 -107 -1 -136 -29z m67 -32 c3 -6 -1 -18 -10 -27 -15 -15 -17 -15 -32 0 -19 19 -11 38 16 38 10 0 22 -5 26 -11z M4053 3602 c20 -21 37 -43 37 -50 0 -7 15 -12 38 -12 51 0 62 -14 62 -80 0 -54 2 -58 50 -105 l50 -49 0 138 0 138 -29 29 c-29 28 -31 29 -137 29 l-108 0 37 -38z m191 -21 c10 -16 -6 -42 -23 -39 -25 5 -27 48 -2 48 11 0 22 -4 25 -9z M1980 3623 c-19 -2 -145 -19 -280 -38 -135 -18 -273 -37 -307 -41 -58 -6 -62 -8 -68 -36 -9 -38 -68 -97 -106 -105 l-29 -5 0 -723 0 -723 33 -11 c39 -13 91 -64 106 -103 9 -23 15 -26 43 -23 18 3 74 9 123 16 50 6 153 19 230 30 417 57 568 40 744 -80 l61 -41 0 124 c0 131 -2 136 -50 136 -28 0 -62 49 -55 80 8 34 41 60 76 60 l29 0 0 215 0 215 -29 0 c-35 0 -68 26 -76 60 -9 39 27 80 71 80 l34 0 0 233 0 233 -32 2 c-36 2 -78 41 -78 71 0 35 39 71 76 71 l34 0 0 86 c0 83 -1 87 -31 115 -92 86 -295 126 -519 102z m34 -549 c83 -48 175 -102 204 -120 l52 -34 0 -239 c0 -208 -2 -240 -16 -252 -42 -34 -391 -229 -411 -229 -37 0 -422 228 -429 254 -13 53 1 467 16 477 206 125 390 228 409 229 13 0 92 -39 175 -86z M1678 3022 c-70 -42 -126 -77 -125 -78 1 -1 62 6 135 14 l132 15 0 64 c0 35 -3 63 -7 63 -5 -1 -65 -35 -135 -78z M1869 3083 c-9 -118 -15 -109 66 -117 88 -10 146 -17 180 -22 21 -4 4 10 -60 48 -190 113 -185 111 -186 91z M1610 2903 c-68 -8 -126 -16 -128 -18 -4 -4 88 -237 110 -279 9 -16 15 -10 50 50 109 187 148 255 148 259 0 7 -37 4 -180 -12z M1908 2888 c11 -18 44 -76 74 -128 84 -145 100 -171 104 -167 5 5 123 292 121 294 -3 2 -286 33 -304 33 -12 0 -11 -6 5 -32z M1827 2878 c-20 -31 -161 -277 -176 -305 l-11 -22 200 -1 c110 0 200 3 200 6 0 5 -185 329 -196 342 -1 2 -9 -7 -17 -20z M1460 2637 c0 -81 2 -147 5 -147 15 0 94 46 95 55 0 10 -88 226 -96 234 -2 2 -4 -62 -4 -142z M2189 2713 c-15 -38 -36 -92 -48 -120 l-21 -53 50 -25 50 -25 0 145 c0 80 -1 145 -3 145 -1 0 -14 -30 -28 -67z M1650 2505 c0 -15 194 -245 200 -238 6 6 118 147 183 231 7 9 -31 12 -187 12 -108 0 -196 -2 -196 -5z M1537 2474 c-27 -14 -47 -27 -45 -28 19 -18 247 -143 242 -134 -8 15 -145 188 -147 188 -1 -1 -24 -12 -50 -26z M2069 2467 c-14 -17 -50 -63 -80 -102 l-54 -70 40 24 c22 13 79 46 128 73 48 28 87 52 87 53 0 3 -90 55 -94 55 0 0 -13 -15 -27 -33z M2503 3590 l57 -39 57 39 56 40 -113 0 -113 0 56 -40z M2860 3624 c-88 -17 -207 -70 -246 -109 -22 -22 -24 -33 -24 -110 l0 -85 34 0 c35 0 76 -36 76 -66 0 -44 -28 -70 -86 -78 -18 -3 -19 -14 -22 -234 l-2 -232 34 0 c37 0 76 -36 76 -70 0 -34 -39 -70 -76 -70 l-34 0 0 -215 0 -215 30 0 c36 0 80 -38 80 -69 0 -30 -41 -70 -75 -74 l-30 -4 -3 -127 -3 -127 59 40 c166 114 343 138 677 92 83 -11 204 -27 270 -36 66 -8 136 -17 156 -20 33 -4 38 -2 43 20 9 37 64 94 100 103 l31 8 3 726 2 726 -27 7 c-45 11 -81 43 -98 89 l-17 44 -61 6 c-34 4 -170 23 -302 42 -227 33 -497 51 -565 38z m452 -275 c57 -11 140 -23 186 -26 67 -5 86 -10 95 -24 12 -19 12 -19 27 0 11 15 33 21 86 27 l72 6 6 -28 c3 -16 5 -73 3 -127 -2 -89 -4 -101 -25 -117 l-22 -19 21 -15 c22 -15 22 -15 22 -458 l1 -443 -25 -12 c-13 -6 -63 -15 -111 -19 l-86 -7 -15 28 -14 29 -13 -24 c-14 -27 -48 -25 -264 13 -127 22 -129 23 -144 55 -20 40 -24 40 -44 -2 -16 -31 -20 -33 -85 -40 -37 -4 -94 -14 -126 -22 -32 -8 -62 -12 -67 -9 -6 4 -10 231 -10 604 l0 599 28 10 c98 38 175 42 203 10 10 -13 18 -17 19 -10 0 6 10 22 21 33 26 26 89 23 261 -12z M3067 3295 c-18 -38 -24 -165 -8 -165 40 0 60 21 72 75 13 60 22 57 33 -10 7 -36 12 -42 61 -66 65 -32 66 -30 64 82 -2 97 -1 97 -84 109 -113 16 -119 15 -138 -25z M2865 3296 l-40 -12 -3 -142 -3 -142 70 0 c65 0 69 1 75 24 3 14 22 41 41 62 32 33 35 42 35 95 0 44 -4 59 -14 59 -8 0 -24 16 -36 35 -24 39 -51 44 -125 21z M3300 3190 c0 -91 4 -118 20 -150 l20 -40 95 0 95 0 0 35 c0 32 -3 35 -28 35 -66 0 -92 100 -41 156 16 17 25 43 17 44 -2 1 -39 7 -83 15 -44 8 -83 15 -87 15 -5 0 -8 -50 -8 -110z M3678 3271 c-14 -3 -36 -18 -48 -33 -28 -36 -49 -35 -63 2 -19 51 -27 34 -27 -58 0 -76 3 -91 20 -107 11 -10 20 -31 20 -47 l0 -28 73 1 c59 0 68 2 50 11 -32 15 -29 43 7 68 29 21 30 23 30 111 0 97 1 95 -62 80z M3510 3248 c0 -12 -7 -29 -16 -39 -16 -18 -29 -99 -16 -99 4 0 17 -3 30 -6 22 -6 22 -5 22 80 0 51 -4 86 -10 86 -5 0 -10 -10 -10 -22z M3066 3093 l-30 -16 23 -18 c30 -24 41 -24 41 0 0 11 3 26 6 35 8 20 -3 20 -40 -1z M3140 3094 c0 -10 -3 -29 -6 -41 -5 -17 -2 -23 10 -23 14 0 16 6 10 38 -8 42 -14 54 -14 26z M3188 3080 c5 -38 15 -44 42 -28 27 17 25 25 -10 43 -38 20 -37 20 -32 -15z M3002 3025 c-17 -37 -15 -43 13 -37 32 6 39 17 25 42 -14 27 -24 25 -38 -5z M3252 3026 c-12 -28 -10 -30 31 -40 27 -6 27 -6 14 26 -17 41 -31 45 -45 14z M3122 2984 c-42 -29 -23 -84 30 -84 45 0 62 46 28 80 -24 24 -29 24 -58 4z M2820 2845 l0 -145 110 0 110 0 0 35 c0 27 -8 44 -35 70 -19 19 -40 53 -46 75 -11 35 -17 41 -58 53 l-46 14 48 13 c66 17 59 30 -18 30 l-65 0 0 -145z M3340 2981 c0 -5 21 -14 48 -21 l47 -13 -47 -14 c-29 -9 -48 -20 -48 -29 0 -8 -9 -32 -20 -54 -13 -25 -20 -59 -20 -95 l0 -55 115 0 115 0 0 48 c0 44 -2 49 -30 59 -37 14 -40 47 -9 87 11 15 18 34 15 42 -3 9 -1 24 4 35 10 18 6 19 -80 19 -49 0 -90 -4 -90 -9z M3563 2971 c-14 -11 -23 -30 -23 -46 0 -15 -9 -38 -20 -53 -29 -36 -10 -53 28 -25 24 18 38 20 95 16 85 -7 97 2 97 73 l0 54 -77 0 c-61 -1 -83 -5 -100 -19z M3010 2950 c-13 -8 -13 -10 2 -10 9 0 23 -3 32 -6 11 -4 16 -1 16 10 0 18 -27 21 -50 6z M3230 2944 c0 -12 6 -15 23 -10 12 3 29 6 37 7 8 0 4 5 -10 9 -39 13 -50 11 -50 -6z M2990 2901 c0 -15 22 -61 30 -61 8 0 35 49 29 54 -11 9 -59 15 -59 7z M3263 2903 c-27 -5 -28 -11 -7 -41 18 -27 28 -22 42 18 12 32 11 32 -35 23z M3134 2844 c3 -9 6 -25 7 -37 0 -21 1 -21 9 -2 14 32 11 55 -6 55 -11 0 -14 -5 -10 -16z M3058 2836 c-24 -18 -23 -23 13 -41 37 -20 41 -17 33 23 -7 34 -19 39 -46 18z M3196 2838 c-19 -61 -17 -64 24 -43 35 18 36 23 13 41 -23 17 -33 17 -37 2z M3556 2811 c-10 -11 -16 -36 -16 -64 l0 -47 100 0 100 0 0 63 0 62 -84 2 c-69 1 -88 -2 -100 -16z m124 -40 c0 -39 -9 -61 -26 -61 -17 0 -17 4 -3 53 12 44 29 49 29 8z M3223 2763 c-78 -36 -75 -63 6 -63 l59 0 -3 41 c-4 51 -1 50 -62 22z M3050 2735 c0 -34 1 -35 40 -35 36 0 39 2 32 21 -5 12 -23 27 -40 35 l-32 13 0 -34z M2820 2675 c0 -8 13 -21 29 -30 17 -8 37 -25 45 -37 15 -20 16 -21 34 -5 25 23 54 21 86 -4 l26 -20 0 55 0 56 -110 0 c-90 0 -110 -3 -110 -15z M3052 2579 c3 -94 7 -113 22 -121 12 -7 21 -7 29 1 15 15 62 14 76 -2 20 -25 90 -52 103 -39 12 12 2 82 -12 82 -13 0 -13 27 0 32 11 3 22 122 13 145 -3 9 -24 13 -63 13 -57 0 -58 0 -65 -32 l-7 -33 -9 33 c-9 29 -13 32 -50 32 l-40 0 3 -111z m176 -51 c-6 -16 -80 -29 -93 -17 -15 15 14 29 58 29 27 0 37 -4 35 -12z M3300 2609 c0 -66 4 -86 20 -106 21 -27 18 -48 -6 -39 -10 4 -14 -3 -14 -23 0 -31 18 -41 73 -41 31 0 36 15 7 23 -11 3 -20 10 -20 16 0 20 50 12 73 -11 21 -21 32 -23 82 -19 13 1 15 24 15 141 l0 140 -115 0 -115 0 0 -81z m197 34 c5 -15 -76 -38 -89 -25 -10 10 7 27 37 35 29 7 48 4 52 -10z m-118 -94 c-15 -45 -27 -57 -35 -35 -9 23 23 93 37 79 6 -6 5 -22 -2 -44z M3540 2680 c0 -13 30 -13 50 0 11 7 7 10 -17 10 -18 0 -33 -4 -33 -10z M3625 2681 c8 -13 -35 -41 -63 -41 -23 0 -23 -1 -20 -117 l3 -118 53 -3 c57 -3 65 7 27 36 -35 28 -34 69 3 83 15 6 46 21 70 32 l42 22 0 57 0 58 -61 0 c-34 0 -58 -4 -54 -9z M2822 2508 l3 -103 108 -1 c98 -2 107 0 107 16 0 11 -5 22 -11 26 -7 4 -9 22 -6 45 4 29 0 45 -15 64 -23 30 -36 31 -78 8 l-31 -18 -27 33 c-46 55 -53 45 -50 -70z M3690 2509 c-19 -10 -40 -19 -47 -19 -20 0 -16 -10 12 -32 14 -11 25 -25 25 -33 0 -7 14 -18 30 -24 l30 -10 0 70 c0 76 0 76 -50 48z M3124 2429 c-3 -6 -22 -9 -40 -7 -35 4 -46 -5 -18 -16 21 -8 114 -8 114 0 0 8 -32 33 -42 34 -4 0 -10 -5 -14 -11z M2820 2280 c0 -60 3 -110 8 -110 46 0 189 34 200 47 7 10 12 48 12 95 l0 78 -110 0 -110 0 0 -110z M3050 2323 c1 -66 1 -67 16 -40 22 40 40 33 65 -28 24 -57 22 -56 115 -70 l41 -6 -3 38 c-2 21 -3 41 -3 44 -1 4 -15 12 -32 19 -30 13 -31 15 -27 62 l5 48 -88 0 -89 0 0 -67z M3256 2359 c-9 -44 -8 -49 8 -49 18 0 23 15 18 52 -6 37 -18 36 -26 -3z M3300 2346 c0 -31 8 -54 27 -82 15 -21 27 -52 27 -69 1 -29 4 -30 63 -41 l61 -11 26 39 c32 49 36 113 7 121 -24 6 -55 52 -45 68 5 9 16 2 36 -21 l28 -34 0 37 0 37 -115 0 -115 0 0 -44z M3540 2308 c0 -67 4 -91 22 -125 25 -47 35 -50 132 -37 l46 7 0 97 0 98 -45 21 c-29 13 -65 21 -100 21 l-55 0 0 -82z m117 -25 c6 -18 -14 -24 -52 -17 -20 3 -35 12 -35 20 0 17 82 14 87 -3z M3300 2205 c0 -15 4 -24 10 -20 6 3 10 12 10 20 0 8 -4 17 -10 20 -6 4 -10 -5 -10 -20z M1190 3490 c0 -56 47 -45 79 18 11 21 10 22 -34 22 l-45 0 0 -40z M3856 3501 c14 -24 51 -51 69 -51 3 0 5 18 5 40 l0 40 -46 0 -45 0 17 -29z M1007 3442 c-16 -17 -17 -94 -17 -895 0 -497 4 -877 9 -877 34 0 34 17 35 910 1 484 -2 880 -5 880 -3 0 -13 -8 -22 -18z M4090 2579 c0 -885 1 -909 32 -909 4 0 8 395 8 878 0 866 0 879 -20 897 -20 18 -20 17 -20 -866z M892 3297 l-32 -33 0 -700 0 -700 35 -34 35 -34 0 767 c0 422 -1 767 -3 767 -2 0 -17 -15 -35 -33z M4190 2565 l0 -769 35 34 35 34 0 701 0 701 -35 34 -35 34 0 -769z M2482 3264 c-33 -24 3 -44 78 -44 73 0 106 18 81 43 -16 16 -138 17 -159 1z M2484 2655 c-30 -24 5 -45 76 -45 35 0 64 6 76 15 30 24 -5 45 -76 45 -35 0 -64 -6 -76 -15z M2477 2076 c-10 -25 16 -36 84 -36 67 0 99 15 84 40 -10 16 -162 13 -168 -4z M1194 1887 c-3 -8 -4 -30 -2 -49 3 -32 4 -33 43 -30 51 5 53 7 29 39 -31 41 -62 59 -70 40z M3874 1866 c-42 -42 -43 -56 -5 -56 16 0 36 -3 45 -6 13 -5 16 2 16 45 0 61 -10 63 -56 17z M1960 1833 c-19 -2 -102 -13 -185 -24 -261 -35 -468 -58 -530 -59 -57 -1 -62 -3 -115 -50 l-55 -49 146 -1 146 0 -4 24 c-5 22 -1 25 38 30 24 3 132 17 239 30 321 41 411 49 499 42 91 -7 209 -42 270 -80 35 -23 81 -26 81 -7 0 13 -87 71 -144 97 -100 46 -240 63 -386 47z M2891 1824 c-96 -21 -261 -106 -261 -135 0 -21 46 -14 102 16 156 83 307 90 708 37 129 -18 254 -34 277 -38 48 -6 61 -18 43 -39 -11 -13 7 -15 136 -15 l149 1 -54 48 -55 48 -110 7 c-61 4 -194 18 -296 32 -427 59 -520 64 -639 38z M830 1686 c0 -201 5 -206 217 -206 l138 0 -52 52 c-51 51 -53 52 -125 57 l-73 6 -3 66 c-3 64 -4 67 -52 114 l-50 49 0 -138z m93 -118 c7 -21 -4 -38 -23 -38 -10 0 -20 6 -23 13 -7 20 4 37 23 37 10 0 20 -6 23 -12z M4237 1772 c-46 -46 -47 -49 -47 -109 0 -73 1 -72 -85 -77 -66 -3 -68 -5 -119 -55 l-51 -52 153 3 154 3 24 28 c23 27 24 35 24 168 0 76 -1 139 -3 139 -1 0 -24 -22 -50 -48z m8 -217 c0 -13 -8 -21 -22 -23 -19 -3 -23 1 -23 23 0 22 4 26 23 23 14 -2 22 -10 22 -23z M1980 1724 c-25 -3 -97 -11 -160 -20 -183 -23 -342 -43 -380 -47 -19 -2 186 -4 455 -5 432 -1 487 0 465 13 -75 44 -250 71 -380 59z M2940 1721 c-60 -9 -141 -33 -180 -56 -22 -13 36 -14 470 -13 272 1 479 3 460 5 -37 4 -193 23 -380 47 -152 20 -302 26 -370 17z M1156 1581 c-3 -4 8 -20 24 -35 l30 -26 539 0 538 0 -6 33 -7 32 -557 2 c-306 1 -559 -1 -561 -6z M2330 1564 c0 -11 10 -36 23 -54 90 -133 410 -102 433 41 6 33 4 35 -21 34 -17 -1 -31 -10 -38 -25 -26 -51 -61 -65 -160 -65 -105 0 -144 14 -167 60 -19 38 -70 45 -70 9z M2845 1577 c-2 -6 -5 -22 -8 -34 l-5 -23 542 0 542 0 27 28 c15 15 27 31 27 35 0 13 -1120 8 -1125 -6z"/>
    </g>
  </g>
</svg>